<?xml version="1.0" encoding="UTF-8"?>
<svg width="63px" height="50px" viewBox="0 0 63 50" version="1.1" xmlns="http://www.w3.org/2000/svg" xmlns:xlink="http://www.w3.org/1999/xlink">
    <!-- Generator: Sketch 50 (54983) - http://www.bohemiancoding.com/sketch -->
    <title>Shape</title>
    <desc>Created with Sketch.</desc>
    <defs></defs>
    <g id="desktop" stroke="none" stroke-width="1" fill="none" fill-rule="evenodd">
        <g id="Poliklinika/1.1" transform="translate(-909.000000, -566.000000)" fill="#FFFFFF" fill-rule="nonzero">
            <g id="Group-23" transform="translate(840.000000, 541.000000)">
                <path d="M107.237141,42.8474425 C107.656066,43.2663683 107.970261,43.6852942 108.389187,44.10422 C104.933048,48.5029412 101.372179,54.7868287 101.372179,61.5943734 L101.372179,73.9526854 C101.372179,74.5810742 100.953253,75 100.324864,75 C99.6964756,75 99.2775497,74.5810742 99.2775497,73.9526854 L99.2775497,61.5943734 C99.2775497,54.5773658 95.7166802,48.1887468 92.5747364,43.8947571 C92.8889308,43.5805627 93.2031252,43.2663683 93.5173196,42.8474425 C93.7267825,42.6379796 93.8315139,42.4285167 94.0409768,42.2190538 C96.4498004,45.3609975 99.0680868,49.6549873 100.429596,54.5773658 C101.895836,49.7597187 104.514123,45.6751919 107.027678,42.5332481 C107.027678,42.6379796 107.132409,42.742711 107.237141,42.8474425 Z M92.7841994,40.438619 C92.5747364,40.7528134 92.2605421,41.1717392 91.9463477,41.4859336 C91.9463477,41.4859336 91.9463477,41.4859336 91.9463477,41.4859336 C91.9463477,41.4859336 91.9463477,41.4859336 91.9463477,41.4859336 C91.4226904,42.0095908 91.0037646,42.5332481 90.4801073,43.0569054 C89.8517185,43.6852942 89.2233298,44.3136829 88.6996725,44.9420717 C87.9665523,45.7799233 87.2334321,47.1414323 87.3381636,48.6076727 C87.442895,49.6549873 88.0712838,50.7023018 89.1185983,51.7496164 L89.5375242,52.1685422 C90.3753758,53.0063939 91.4226904,53.8442456 91.6321533,55.2057545 C91.8416162,56.462532 91.4226904,57.9287724 90.2706444,59.0808184 C88.804404,60.6517903 86.6050434,61.5943734 84.1962198,61.6991049 C84.0914884,61.6991049 83.8820255,61.6991049 83.777294,61.6991049 C81.8921278,61.6991049 79.9022301,61.1754476 77.9123324,60.128133 C75.084583,58.6618926 72.6757595,56.3578005 71.2095191,53.5300512 C69.4290843,50.283376 68.6959641,46.1988491 69.1148899,41.8001279 C69.6385472,36.563555 71.7331764,29.8607418 76.446092,26.9282609 C80.8448132,24.1005116 87.0239692,24.414706 91.108496,27.6613811 C93.2031252,29.3370845 94.4599027,31.4317136 94.774097,33.6310742 C94.98356,36.4588236 93.8315139,38.8676471 92.7841994,40.438619 Z M92.5747364,34.0500001 C92.3652735,32.3742967 91.3179589,30.6985934 89.7469871,29.4418159 C87.9665523,27.9755755 85.5577288,27.2424553 83.2536367,27.2424553 C81.263739,27.2424553 79.2738413,27.7661126 77.4934065,28.8134272 C73.5136111,31.3269822 71.5237135,37.6108696 71.1047876,42.1143223 C70.7905932,46.0941177 71.418982,49.7597187 72.9899539,52.5874681 C74.3514628,54.9962916 76.446092,57.0909207 78.8549155,58.3476982 C80.6353503,59.2902814 82.415785,59.7092072 84.0914884,59.6044757 C85.9766546,59.4997443 87.6523579,58.7666241 88.6996725,57.614578 C89.3280613,56.8814578 89.6422556,56.1483376 89.5375242,55.5199489 C89.4327927,54.7868287 88.804404,54.2631714 88.0712838,53.6347826 L87.6523579,53.2158568 C86.1861175,51.7496164 85.3482659,50.283376 85.2435344,48.7124041 C85.0340715,46.617775 86.0813861,44.7326087 87.0239692,43.5805627 C87.3381636,43.2663683 87.5476265,42.952174 87.8618208,42.6379796 C88.1760152,42.2190538 88.594941,41.9048594 88.9091354,41.590665 C88.9091354,41.590665 88.9091354,41.590665 88.9091354,41.590665 C88.0712838,41.590665 87.1287006,41.590665 86.1861175,41.8001279 C86.0813861,41.8001279 85.9766546,41.8001279 85.8719231,41.8001279 C85.4529973,41.8001279 85.0340715,41.4859336 84.8246086,41.0670077 C84.6151457,40.5433504 84.92934,39.9149617 85.5577288,39.8102302 C86.6050434,39.4960359 87.7570894,39.3913044 88.804404,39.4960359 C87.8618208,38.4487213 87.2334321,37.925064 87.1287006,37.925064 C86.7097748,37.5061382 86.6050434,36.8777494 87.0239692,36.4588236 C87.442895,36.0398978 88.0712838,35.9351663 88.4902096,36.3540921 C88.594941,36.4588236 89.6422556,37.4014067 91.108496,38.9723786 C91.4226904,38.4487213 91.7368848,37.925064 92.0510791,37.2966752 C92.470005,36.2493607 92.6794679,35.2020461 92.5747364,34.0500001 Z M129.544941,53.6347826 C127.973969,56.462532 125.669877,58.7666241 122.842128,60.2328645 C120.956961,61.280179 118.862332,61.8038363 116.977166,61.8038363 C116.872435,61.8038363 116.662972,61.8038363 116.55824,61.8038363 C114.149417,61.6991049 111.950056,60.7565218 110.483816,59.1855499 C109.33177,58.0335039 108.912844,56.5672635 109.122307,55.310486 C109.33177,53.948977 110.379084,53.0063939 111.216936,52.2732737 L111.635862,51.9590793 C112.787908,50.9117647 113.311565,49.8644502 113.416297,48.8171356 C113.521028,47.4556266 112.787908,46.0941177 112.054788,45.1515346 C111.53113,44.5231458 110.902742,43.8947571 110.274353,43.2663683 C109.750695,42.742711 109.227038,42.2190538 108.808112,41.6953965 C108.493918,41.3812021 108.179724,40.9622763 107.970261,40.5433504 C106.922946,38.9723786 105.666169,36.6682865 106.085094,33.9452686 C106.399289,31.745908 107.656066,29.5465474 109.750695,27.9755755 C113.835222,24.7289003 120.014378,24.5194374 124.4131,27.2424553 C129.126015,30.1749361 131.220644,36.8777494 131.744302,42.1143223 C132.058496,46.3035806 131.325376,50.3881075 129.544941,53.6347826 Z M129.544941,42.1143223 C129.126015,37.6108696 127.240849,31.3269822 123.156322,28.8134272 C121.480619,27.7661126 119.38599,27.2424553 117.396092,27.2424553 C115.092,27.2424553 112.683176,27.9755755 110.902742,29.4418159 C109.33177,30.6985934 108.284455,32.3742967 108.074992,34.0500001 C107.865529,35.9351663 108.598649,37.6108696 109.33177,38.7629157 C109.436501,38.8676471 109.541233,39.07711 109.645964,39.1818415 C109.645964,39.1818415 109.645964,39.1818415 109.645964,39.1818415 C109.645964,39.1818415 109.750695,39.2865729 109.750695,39.2865729 C111.426399,37.5061382 112.787908,36.3540921 112.892639,36.2493607 C113.311565,35.8304348 114.044685,35.9351663 114.35888,36.3540921 C114.777805,36.773018 114.673074,37.5061382 114.254148,37.8203325 C114.254148,37.8203325 113.416297,38.5534527 112.26425,39.7054988 C114.044685,39.8102302 116.034583,40.0196931 116.872435,40.8575448 C117.29136,41.2764706 117.29136,41.9048594 116.872435,42.3237852 C116.55824,42.6379796 116.348777,42.742711 116.034583,42.742711 C115.720389,42.742711 115.510926,42.6379796 115.301463,42.4285167 C114.987268,42.2190538 113.625759,42.0095908 112.054788,41.9048594 C112.368982,42.2190538 112.683176,42.6379796 112.997371,42.952174 C113.206834,43.1616369 113.416297,43.4758312 113.625759,43.6852942 C114.568343,44.8373402 115.615657,46.7225064 115.406194,48.8171356 C115.301463,50.3881075 114.463611,51.8543479 112.997371,53.3205883 L112.578445,53.7395141 C111.845325,54.3679028 111.216936,54.9962916 111.112204,55.6246803 C111.007473,56.2530691 111.321667,56.9861893 111.950056,57.7193095 C113.102102,58.8713555 114.777805,59.6044757 116.55824,59.7092072 C118.233944,59.8139386 120.014378,59.2902814 121.794813,58.4524297 C124.203637,57.1956522 126.298266,55.101023 127.659775,52.6921995 C129.649672,49.0265985 129.754404,44.9420717 129.544941,42.1143223 Z" id="Shape"></path>
            </g>
        </g>
    </g>
</svg>