<?xml version="1.0" encoding="UTF-8"?>
<svg width="52px" height="52px" viewBox="0 0 52 52" version="1.1" xmlns="http://www.w3.org/2000/svg" xmlns:xlink="http://www.w3.org/1999/xlink">
    <!-- Generator: Sketch 50 (54983) - http://www.bohemiancoding.com/sketch -->
    <title>Group 15</title>
    <desc>Created with Sketch.</desc>
    <defs></defs>
    <g id="desktop" stroke="none" stroke-width="1" fill="none" fill-rule="evenodd">
        <g id="Poliklinika/1.1" transform="translate(-694.000000, -565.000000)" fill="#FFFFFF" fill-rule="nonzero" stroke="#FFFFFF" stroke-width="0.3">
            <g id="Group-16" transform="translate(620.000000, 541.000000)">
                <g id="Group-15" transform="translate(75.000000, 25.000000)">
                    <path d="M1.69231403,30.3091667 C1.69134147,29.7982239 1.89755604,29.3080476 2.26516007,28.9475 C2.95487519,28.273885 4.04088865,28.1977409 4.82054417,28.7683333 L5.51523634,29.2816667 C6.14634482,29.7458187 6.91234453,29.9976729 7.70000512,30 L14.3846192,30 C24.6607775,29.988519 32.9883424,21.7871277 33,11.6666667 L33,0 L31.3076927,0 L31.3076927,11.6666667 C31.2969679,20.8670339 23.7265286,28.3227711 14.3846192,28.3333333 L7.70000512,28.3333333 C7.2769431,28.3326173 6.86538536,28.1976073 6.52638998,27.9483333 L5.83846704,27.4358333 C4.38465982,26.3705703 2.35845701,26.5122712 1.07208339,27.7691667 C0.384255861,28.4406025 -0.00185269899,29.3553838 6.68467951e-06,30.3091667 L0,50 L1.69231403,50 L1.69231403,30.3091667 Z" id="Shape"></path>
                    <path d="M42.8603469,8.33916667 C41.6110251,8.28766706 40.3690706,8.55541277 39.2500011,9.1175 L39.2500011,0 L37.5961551,0 L37.5961551,10.6333333 C37.5960989,10.9539492 37.7785696,11.2461654 38.0654217,11.3848365 C38.3522739,11.5235076 38.6926316,11.4840389 38.9407319,11.2833333 C40.0313861,10.4049525 41.3990346,9.95095789 42.7941931,10.0041667 C46.1134619,10.1383333 48.346154,14.155 48.346154,20 L48.346154,22.8516667 C48.3320268,35.538189 38.1302041,45.8190966 25.5412718,45.8333333 C19.9163998,45.8384844 14.6628182,43.0042371 11.548081,38.2841667 C10.9427287,37.3644828 9.81058808,36.9536158 8.76238217,37.2732041 C7.71417627,37.5927924 6.99792532,38.5672171 7.00000451,39.6708333 L7,50 L8.6538505,50 L8.6538505,39.6666667 C8.65413287,39.2995774 8.89274336,38.9759096 9.24141517,38.8696533 C9.59008697,38.763397 9.96668792,38.8995815 10.1687734,39.205 C13.5900395,44.3910902 19.3615977,47.5054229 25.5412718,47.5 C39.0430315,47.4843863 49.9845064,36.4580926 50,22.8516667 L50,20 C50,13.1966667 47.1305772,8.51083333 42.8603469,8.33916667 Z" id="Shape"></path>
                    <path d="M34,35.5 C34,36.8807119 35.1192881,38 36.5,38 C37.8807119,38 39,36.8807119 39,35.5 C39,34.1192881 37.8807119,33 36.5,33 C35.1192881,33 34,34.1192881 34,35.5 Z M37.3333333,35.5 C37.3333333,35.9602373 36.9602373,36.3333333 36.5,36.3333333 C36.0397627,36.3333333 35.6666667,35.9602373 35.6666667,35.5 C35.6666667,35.0397627 36.0397627,34.6666667 36.5,34.6666667 C36.9602373,34.6666667 37.3333333,35.0397627 37.3333333,35.5 Z" id="Shape"></path>
                    <path d="M19,40.5 C19,41.8807119 20.1192881,43 21.5,43 C22.8807119,43 24,41.8807119 24,40.5 C24,39.1192881 22.8807119,38 21.5,38 C20.1192881,38 19,39.1192881 19,40.5 Z M21.5,39.6666667 C21.9602373,39.6666667 22.3333333,40.0397627 22.3333333,40.5 C22.3333333,40.9602373 21.9602373,41.3333333 21.5,41.3333333 C21.0397627,41.3333333 20.6666667,40.9602373 20.6666667,40.5 C20.6666667,40.0397627 21.0397627,39.6666667 21.5,39.6666667 Z" id="Shape"></path>
                    <path d="M27,28.4993921 L34.0414615,28.4993921 C34.3345194,29.3986355 35.1193983,30 36,30 C36.8806017,30 37.6654806,29.3986355 37.9585385,28.4993921 L45,28.4993921 L45,27 L37.3846154,27 C37.0022644,27 36.6923077,27.3356503 36.6923077,27.749696 C36.6923077,28.1637417 36.382351,28.4993921 36,28.4993921 C35.617649,28.4993921 35.3076923,28.1637417 35.3076923,27.749696 C35.3076923,27.3356503 34.9977356,27 34.6153846,27 L27,27 L27,28.4993921 Z" id="Shape"></path>
                    <rect id="Rectangle-path" x="27" y="40" width="2" height="2"></rect>
                    <rect id="Rectangle-path" x="14" y="35" width="2" height="2"></rect>
                    <rect id="Rectangle-path" x="21" y="30" width="2" height="2"></rect>
                    <path d="M31,33.5 C31,32.1192881 29.8807119,31 28.5,31 C27.1192881,31 26,32.1192881 26,33.5 C26,34.8807119 27.1192881,36 28.5,36 C29.8807119,36 31,34.8807119 31,33.5 Z M28.5,34.3333333 C28.0397627,34.3333333 27.6666667,33.9602373 27.6666667,33.5 C27.6666667,33.0397627 28.0397627,32.6666667 28.5,32.6666667 C28.9602373,32.6666667 29.3333333,33.0397627 29.3333333,33.5 C29.3333333,33.9602373 28.9602373,34.3333333 28.5,34.3333333 Z" id="Shape"></path>
                    <rect id="Rectangle-path" x="42" y="31" width="2" height="2"></rect>
                </g>
            </g>
        </g>
    </g>
</svg>