<?xml version="1.0" encoding="UTF-8"?>
<svg width="43px" height="50px" viewBox="0 0 43 50" version="1.1" xmlns="http://www.w3.org/2000/svg" xmlns:xlink="http://www.w3.org/1999/xlink">
    <!-- Generator: Sketch 50 (54983) - http://www.bohemiancoding.com/sketch -->
    <title>Group</title>
    <desc>Created with Sketch.</desc>
    <defs></defs>
    <g id="desktop" stroke="none" stroke-width="1" fill="none" fill-rule="evenodd">
        <g id="Poliklinika/1.1" transform="translate(-259.000000, -1052.000000)" fill="#FFFFFF" fill-rule="nonzero">
            <g id="Group-25" transform="translate(180.000000, 1027.000000)">
                <g id="Group" transform="translate(79.000000, 25.000000)">
                    <path d="M23.2817272,50 C23.1694159,50 23.0539847,49.9812496 22.9406335,49.9416655 C22.3988352,49.7531199 22.1107774,49.1603992 22.3000428,48.6166378 C22.7076914,47.43953 22.8969568,46.6384716 23.050865,45.9936665 C23.284847,45.0071876 23.4543539,44.2936311 24.1687789,43.4675722 C24.5109125,43.0769391 24.9705572,42.7321403 25.3407686,42.4540095 C26.3630099,41.6821184 27.4819638,41.3216942 28.5426821,41.0175212 C29.7063525,40.6831392 30.9240987,40.7602242 32.1012881,40.8331424 C33.3283936,40.911269 34.4816648,40.9841872 35.3572773,40.5716786 C35.5600617,40.4748016 35.6141376,40.4091752 35.6151775,40.4081335 C35.5881396,40.3300069 35.3333592,39.8654139 35.1825708,39.5904081 C34.7842815,38.8643513 34.2892796,37.9601658 34.4993434,36.9455614 C34.6938084,36.0122086 35.4498302,35.51949 35.9500317,35.1923998 C35.984349,35.1705244 36.0217862,35.1455239 36.0602632,35.1205233 C35.8876365,34.9548949 35.6661335,34.7715577 35.5455028,34.6715557 C35.4467104,34.5913457 35.3583173,34.5173858 35.2865628,34.4538428 C34.9267505,34.1382112 34.828998,33.6184087 35.0484211,33.1933999 C35.4071935,32.4954687 36.0841814,32.1308777 36.7694886,31.8850393 C36.3160835,31.0506469 36.2297701,30.07771 36.8079656,29.1953999 C37.504712,28.1318361 38.6933404,27.921415 39.646947,27.7537032 C40.0202783,27.6880768 40.3769708,27.6245338 40.6255117,27.5255734 C40.6203121,27.5193233 40.6151125,27.5130732 40.6109528,27.5078647 L40.2885776,27.1255651 C39.8518112,26.6047209 39.4171247,26.0870018 38.9668394,25.6057418 C38.7141388,25.3359445 38.4063225,25.0588554 38.088107,24.769266 C37.0201093,23.7984125 35.8096425,22.6994312 35.530944,21.2139836 C35.3427185,20.2139628 35.6921315,19.327486 35.9729099,18.6149711 L36.0945806,18.3014229 C36.3431214,17.6337007 36.4367142,16.994104 36.3982372,16.2263797 C36.3368819,14.9398946 36.1486564,13.310694 35.9406724,12.8075585 C33.1058507,5.99283318 26.9807224,2.08337674 19.1376463,2.08337674 C9.73261055,2.08337674 2.07983984,9.71895248 2.07983984,19.103523 C2.07983984,21.7285777 2.69443252,24.3463405 3.85602307,26.6755557 C4.42069959,27.807871 5.11432617,28.8797683 5.91922419,29.8631221 L6.11888882,30.1047938 C6.98930179,31.1589825 7.7411639,32.0683764 7.79939941,33.8767474 C7.81811797,34.4090502 7.83163693,35.0361466 7.79835949,35.6476177 C7.73492438,36.8559762 7.23576281,38.173712 6.3164736,39.5612409 C5.72267933,40.4612596 5.19232017,41.4102377 4.63076341,42.415467 C3.89346019,43.7363278 3.13119888,45.1009396 2.20982983,46.3342986 C1.86665626,46.7947249 1.21566639,46.8905602 0.754981863,46.5447197 C0.295337258,46.2009625 0.200704545,45.5478239 0.544918039,45.0873977 C1.3830935,43.9644576 2.07879992,42.7185983 2.81610315,41.3987791 C3.37142039,40.4039667 3.94545618,39.376862 4.58396701,38.4112169 C5.28487304,37.3528615 5.67900269,36.3590908 5.72163941,35.5371987 C5.75075717,35.0059376 5.73723821,34.4350924 5.72059949,33.9486239 C5.68420229,32.8496427 5.29423232,32.3756745 4.51637222,31.4339882 L4.31046807,31.183983 C3.40781758,30.0818767 2.62891756,28.8787266 1.99560633,27.6078668 C0.689466908,24.9911456 0,22.0515011 0,19.1045647 C-1.38545165e-15,8.56997021 8.58557887,0 19.1376463,0 C27.8625745,0 34.6875689,4.37717452 37.8593247,12.0096252 C38.3106499,13.0950645 38.4510391,15.630534 38.4759972,16.1274193 C38.5279932,17.1743161 38.3907237,18.0993354 38.0423506,19.0326882 L37.907161,19.3826955 C37.6970972,19.9170816 37.4974325,20.4233422 37.5743866,20.831684 C37.725175,21.6285756 38.660063,22.4785933 39.4857594,23.2286089 C39.8476516,23.5567408 40.1949848,23.8744557 40.4830426,24.1817538 C40.9593259,24.6900977 41.4189706,25.2369841 41.880695,25.7869956 L42.1999504,26.1651284 C42.6346369,26.6807642 43.1285989,27.2651514 42.9694912,28.0172504 C42.8083036,28.783933 42.0647608,29.1464406 41.620715,29.3631117 C41.1090744,29.6110336 40.5495975,29.7110356 40.0067593,29.806871 C39.3599291,29.920415 38.7494961,30.0287506 38.5456718,30.3402154 C38.296091,30.7214734 38.8878055,31.3266943 39.1966617,31.5444072 C39.5065578,31.76212 39.672945,32.1319194 39.6323881,32.5090106 C39.5907913,32.8861018 39.3495299,33.2111086 38.9990769,33.3569449 C38.7619752,33.4559053 38.4635181,33.5454905 38.1453026,33.6382008 C38.0184324,33.6746599 37.8437259,33.7257026 37.6648596,33.7840372 C38.0548296,34.2007125 38.3636858,34.6944728 38.3314483,35.2757349 C38.283612,36.158045 37.5629475,36.6288881 37.0856242,36.9403529 C36.9088379,37.0549386 36.5791832,37.2705681 36.5355066,37.374737 C36.4824707,37.6330757 36.7736483,38.1632951 37.0065903,38.5893456 C37.413199,39.329986 37.8738835,40.1706286 37.5733467,41.0956478 C37.387201,41.6717015 36.9400355,42.1300444 36.244329,42.4581762 C34.8841138,43.0998562 33.4053476,43.0061043 31.972338,42.9144357 C30.9261785,42.8488094 29.9372147,42.7873497 29.1187977,43.0217296 C28.2088678,43.2831934 27.3342951,43.5613242 26.6365089,44.0884185 C26.297495,44.3425905 25.933523,44.6155128 25.739058,44.8373924 C25.3771658,45.2551095 25.297092,45.5436572 25.0755891,46.4770099 C24.9216809,47.1301485 24.7084973,48.0239172 24.2665314,49.3010271 C24.115743,49.7302027 23.7122541,50 23.2817272,50 Z" id="Shape"></path>
                    <path d="M17.0503468,50 C16.9989276,50 16.9475084,49.996791 16.8960892,49.9882337 C16.3231323,49.9026609 15.9264699,49.3582035 16.011469,48.7741686 C16.0188146,48.7196159 16.8121395,43.2664846 17.98009,38.2412177 C19.0661895,33.5667995 23.9720014,32.7912954 26.4663575,33.041596 L36.9506285,33.041596 C37.5309309,33.041596 38,33.5197345 38,34.1112569 C38,34.7027794 37.5309309,35.1809178 36.9506285,35.1809178 L26.4128396,35.1809178 C26.3771609,35.1809178 26.3404329,35.1787785 26.3037049,35.1744999 C26.0843863,35.152037 20.9613545,34.6835255 20.0211176,38.7343314 C18.8752039,43.6665378 18.0944715,49.0319569 18.0860765,49.0854399 C18.0094724,49.6181311 17.5613907,50 17.0503468,50 Z" id="Shape"></path>
                </g>
            </g>
        </g>
    </g>
</svg>